<mxfile host="app.diagrams.net" modified="2021-06-13T12:15:54.534Z" agent="5.0 (Windows NT 10.0; Win64; x64) AppleWebKit/537.36 (KHTML, like Gecko) Chrome/91.0.4472.101 Safari/537.36" etag="FLdnGakj6_-jMqJQPZmb" version="14.7.7" type="github">
  <diagram id="zS2Ke8lG-zN17uugovul" name="Page-1">
    <mxGraphModel dx="1621" dy="-74" grid="0" gridSize="10" guides="1" tooltips="1" connect="1" arrows="1" fold="1" page="0" pageScale="1" pageWidth="827" pageHeight="1169" math="0" shadow="0">
      <root>
        <mxCell id="0" />
        <mxCell id="1" parent="0" />
        <mxCell id="2FXpOR_JV8casT9oI08A-57" value="" style="html=1;dashed=0;whitespace=wrap;shape=partialRectangle;right=0;startSize=26;fillColor=#ffffff;gradientColor=none;" parent="1" vertex="1">
          <mxGeometry x="30" y="927" width="30" height="33" as="geometry" />
        </mxCell>
        <mxCell id="2FXpOR_JV8casT9oI08A-58" value="&lt;font style=&quot;font-size: 14px&quot; face=&quot;Times New Roman&quot;&gt;TopicID&lt;/font&gt;" style="text;html=1;resizable=0;autosize=1;align=center;verticalAlign=middle;points=[];fillColor=none;strokeColor=none;startSize=26;fontSize=12;" parent="1" vertex="1">
          <mxGeometry x="60" y="951" width="56" height="18" as="geometry" />
        </mxCell>
        <mxCell id="2FXpOR_JV8casT9oI08A-59" value="" style="html=1;dashed=0;whitespace=wrap;shape=partialRectangle;right=0;startSize=26;fillColor=#ffffff;gradientColor=none;" parent="1" vertex="1">
          <mxGeometry x="30" y="960" width="30" height="33" as="geometry" />
        </mxCell>
        <mxCell id="2FXpOR_JV8casT9oI08A-60" value="&lt;font style=&quot;font-size: 14px&quot; face=&quot;Times New Roman&quot;&gt;Title&lt;/font&gt;" style="text;html=1;resizable=0;autosize=1;align=center;verticalAlign=middle;points=[];fillColor=none;strokeColor=none;startSize=26;fontSize=12;" parent="1" vertex="1">
          <mxGeometry x="60" y="983" width="36" height="18" as="geometry" />
        </mxCell>
        <mxCell id="2FXpOR_JV8casT9oI08A-61" value="" style="html=1;dashed=0;whitespace=wrap;shape=partialRectangle;right=0;startSize=26;fillColor=#ffffff;gradientColor=none;" parent="1" vertex="1">
          <mxGeometry x="30" y="993" width="30" height="33" as="geometry" />
        </mxCell>
        <mxCell id="2FXpOR_JV8casT9oI08A-62" value="&lt;font style=&quot;font-size: 14px&quot; face=&quot;Times New Roman&quot;&gt;Description&lt;/font&gt;" style="text;html=1;resizable=0;autosize=1;align=center;verticalAlign=middle;points=[];fillColor=none;strokeColor=none;startSize=26;fontSize=12;" parent="1" vertex="1">
          <mxGeometry x="60" y="1017" width="76" height="18" as="geometry" />
        </mxCell>
        <mxCell id="2FXpOR_JV8casT9oI08A-63" value="" style="html=1;dashed=0;whitespace=wrap;shape=partialRectangle;right=0;startSize=26;fillColor=#ffffff;gradientColor=none;" parent="1" vertex="1">
          <mxGeometry x="30" y="1026" width="30" height="33" as="geometry" />
        </mxCell>
        <mxCell id="2FXpOR_JV8casT9oI08A-64" value="&lt;font style=&quot;font-size: 14px&quot; face=&quot;Times New Roman&quot;&gt;ImageUrl&lt;/font&gt;" style="text;html=1;resizable=0;autosize=1;align=center;verticalAlign=middle;points=[];fillColor=none;strokeColor=none;startSize=26;fontSize=12;" parent="1" vertex="1">
          <mxGeometry x="60" y="1051" width="64" height="18" as="geometry" />
        </mxCell>
        <mxCell id="2FXpOR_JV8casT9oI08A-70" value="" style="html=1;dashed=0;whitespace=wrap;shape=partialRectangle;right=0;startSize=26;fillColor=#ffffff;gradientColor=none;" parent="1" vertex="1">
          <mxGeometry x="111" y="1150" width="30" height="33" as="geometry" />
        </mxCell>
        <mxCell id="2FXpOR_JV8casT9oI08A-71" value="UserID" style="text;html=1;resizable=0;autosize=1;align=center;verticalAlign=middle;points=[];fillColor=none;strokeColor=none;startSize=26;fontSize=12;" parent="1" vertex="1">
          <mxGeometry x="145" y="1175" width="48" height="18" as="geometry" />
        </mxCell>
        <mxCell id="2FXpOR_JV8casT9oI08A-72" value="" style="html=1;dashed=0;whitespace=wrap;shape=partialRectangle;right=0;startSize=26;fillColor=#ffffff;gradientColor=none;" parent="1" vertex="1">
          <mxGeometry x="111" y="1183" width="30" height="33" as="geometry" />
        </mxCell>
        <mxCell id="2FXpOR_JV8casT9oI08A-73" value="FullName" style="text;html=1;resizable=0;autosize=1;align=center;verticalAlign=middle;points=[];fillColor=none;strokeColor=none;startSize=26;fontSize=12;" parent="1" vertex="1">
          <mxGeometry x="145" y="1205" width="61" height="18" as="geometry" />
        </mxCell>
        <mxCell id="2FXpOR_JV8casT9oI08A-74" value="" style="html=1;dashed=0;whitespace=wrap;shape=partialRectangle;right=0;startSize=26;fillColor=#ffffff;gradientColor=none;" parent="1" vertex="1">
          <mxGeometry x="111" y="1216" width="30" height="33" as="geometry" />
        </mxCell>
        <mxCell id="2FXpOR_JV8casT9oI08A-75" value="Email" style="text;html=1;resizable=0;autosize=1;align=center;verticalAlign=middle;points=[];fillColor=none;strokeColor=none;startSize=26;fontSize=12;" parent="1" vertex="1">
          <mxGeometry x="145" y="1239" width="40" height="18" as="geometry" />
        </mxCell>
        <mxCell id="2FXpOR_JV8casT9oI08A-76" value="" style="html=1;dashed=0;whitespace=wrap;shape=partialRectangle;right=0;startSize=26;fillColor=#ffffff;gradientColor=none;" parent="1" vertex="1">
          <mxGeometry x="111" y="1249" width="30" height="33" as="geometry" />
        </mxCell>
        <mxCell id="2FXpOR_JV8casT9oI08A-78" value="" style="html=1;dashed=0;whitespace=wrap;shape=partialRectangle;right=0;startSize=26;fillColor=#ffffff;gradientColor=none;" parent="1" vertex="1">
          <mxGeometry x="111" y="1282" width="30" height="33" as="geometry" />
        </mxCell>
        <mxCell id="2FXpOR_JV8casT9oI08A-79" value="PhoneNumber" style="text;html=1;resizable=0;autosize=1;align=center;verticalAlign=middle;points=[];fillColor=none;strokeColor=none;startSize=26;fontSize=12;" parent="1" vertex="1">
          <mxGeometry x="145" y="1272" width="88" height="18" as="geometry" />
        </mxCell>
        <mxCell id="2FXpOR_JV8casT9oI08A-81" value="AvatarURL" style="text;html=1;resizable=0;autosize=1;align=center;verticalAlign=middle;points=[];fillColor=none;strokeColor=none;startSize=26;fontSize=12;" parent="1" vertex="1">
          <mxGeometry x="145" y="1306" width="68" height="18" as="geometry" />
        </mxCell>
        <mxCell id="2FXpOR_JV8casT9oI08A-84" value="Account" style="whiteSpace=wrap;html=1;align=center;startSize=26;fillColor=#dae8fc;strokeColor=#6c8ebf;" parent="1" vertex="1">
          <mxGeometry x="108" y="1425" width="100" height="40" as="geometry" />
        </mxCell>
        <mxCell id="2FXpOR_JV8casT9oI08A-85" value="" style="html=1;dashed=0;whitespace=wrap;shape=partialRectangle;right=0;startSize=26;fillColor=#ffffff;gradientColor=none;" parent="1" vertex="1">
          <mxGeometry x="108" y="1465" width="30" height="33" as="geometry" />
        </mxCell>
        <mxCell id="2FXpOR_JV8casT9oI08A-86" value="AccountID" style="text;html=1;resizable=0;autosize=1;align=center;verticalAlign=middle;points=[];fillColor=none;strokeColor=none;startSize=26;fontSize=12;" parent="1" vertex="1">
          <mxGeometry x="142.5" y="1489" width="65" height="18" as="geometry" />
        </mxCell>
        <mxCell id="2FXpOR_JV8casT9oI08A-87" value="" style="html=1;dashed=0;whitespace=wrap;shape=partialRectangle;right=0;startSize=26;fillColor=#ffffff;gradientColor=none;" parent="1" vertex="1">
          <mxGeometry x="108" y="1498" width="30" height="33" as="geometry" />
        </mxCell>
        <mxCell id="2FXpOR_JV8casT9oI08A-88" value="Username" style="text;html=1;resizable=0;autosize=1;align=center;verticalAlign=middle;points=[];fillColor=none;strokeColor=none;startSize=26;fontSize=12;" parent="1" vertex="1">
          <mxGeometry x="142" y="1522" width="65" height="18" as="geometry" />
        </mxCell>
        <mxCell id="2FXpOR_JV8casT9oI08A-89" value="" style="html=1;dashed=0;whitespace=wrap;shape=partialRectangle;right=0;startSize=26;fillColor=#ffffff;gradientColor=none;" parent="1" vertex="1">
          <mxGeometry x="108" y="1531" width="30" height="33" as="geometry" />
        </mxCell>
        <mxCell id="2FXpOR_JV8casT9oI08A-90" value="Password" style="text;html=1;resizable=0;autosize=1;align=center;verticalAlign=middle;points=[];fillColor=none;strokeColor=none;startSize=26;fontSize=12;" parent="1" vertex="1">
          <mxGeometry x="142" y="1555" width="63" height="18" as="geometry" />
        </mxCell>
        <mxCell id="2FXpOR_JV8casT9oI08A-91" value="" style="html=1;dashed=0;whitespace=wrap;shape=partialRectangle;right=0;startSize=26;fillColor=#ffffff;gradientColor=none;" parent="1" vertex="1">
          <mxGeometry x="108" y="1564" width="30" height="33" as="geometry" />
        </mxCell>
        <mxCell id="2FXpOR_JV8casT9oI08A-93" value="Role" style="text;html=1;resizable=0;autosize=1;align=center;verticalAlign=middle;points=[];fillColor=none;strokeColor=none;startSize=26;fontSize=12;" parent="1" vertex="1">
          <mxGeometry x="142" y="1588" width="35" height="18" as="geometry" />
        </mxCell>
        <mxCell id="2FXpOR_JV8casT9oI08A-96" value="" style="html=1;dashed=0;whitespace=wrap;shape=partialRectangle;right=0;startSize=26;fillColor=#ffffff;gradientColor=none;" parent="1" vertex="1">
          <mxGeometry x="518" y="933.5" width="30" height="33" as="geometry" />
        </mxCell>
        <mxCell id="2FXpOR_JV8casT9oI08A-97" value="&lt;font style=&quot;font-size: 14px&quot; face=&quot;Times New Roman&quot;&gt;QuizID&lt;/font&gt;" style="text;html=1;resizable=0;autosize=1;align=center;verticalAlign=middle;points=[];fillColor=none;strokeColor=none;startSize=26;fontSize=12;" parent="1" vertex="1">
          <mxGeometry x="548" y="957" width="52" height="18" as="geometry" />
        </mxCell>
        <mxCell id="2FXpOR_JV8casT9oI08A-98" value="" style="html=1;dashed=0;whitespace=wrap;shape=partialRectangle;right=0;startSize=26;fillColor=#ffffff;gradientColor=none;" parent="1" vertex="1">
          <mxGeometry x="518" y="966.5" width="30" height="33" as="geometry" />
        </mxCell>
        <mxCell id="2FXpOR_JV8casT9oI08A-99" value="&lt;font style=&quot;font-size: 14px&quot; face=&quot;Times New Roman&quot;&gt;Title&lt;/font&gt;" style="text;html=1;resizable=0;autosize=1;align=center;verticalAlign=middle;points=[];fillColor=none;strokeColor=none;startSize=26;fontSize=12;" parent="1" vertex="1">
          <mxGeometry x="548" y="990" width="36" height="18" as="geometry" />
        </mxCell>
        <mxCell id="2FXpOR_JV8casT9oI08A-100" value="" style="html=1;dashed=0;whitespace=wrap;shape=partialRectangle;right=0;startSize=26;fillColor=#ffffff;gradientColor=none;" parent="1" vertex="1">
          <mxGeometry x="518" y="999.5" width="30" height="33" as="geometry" />
        </mxCell>
        <mxCell id="2FXpOR_JV8casT9oI08A-101" value="&lt;font face=&quot;Times New Roman&quot; style=&quot;font-size: 14px&quot;&gt;Description&lt;/font&gt;" style="text;html=1;resizable=0;autosize=1;align=center;verticalAlign=middle;points=[];fillColor=none;strokeColor=none;startSize=26;fontSize=12;" parent="1" vertex="1">
          <mxGeometry x="548" y="1023" width="76" height="18" as="geometry" />
        </mxCell>
        <mxCell id="2FXpOR_JV8casT9oI08A-104" value="Question" style="whiteSpace=wrap;html=1;align=center;startSize=26;fillColor=#dae8fc;strokeColor=#6c8ebf;" parent="1" vertex="1">
          <mxGeometry x="453" y="1197.5" width="100" height="40" as="geometry" />
        </mxCell>
        <mxCell id="2FXpOR_JV8casT9oI08A-105" value="" style="html=1;dashed=0;whitespace=wrap;shape=partialRectangle;right=0;startSize=26;fillColor=#ffffff;gradientColor=none;" parent="1" vertex="1">
          <mxGeometry x="453" y="1237.5" width="30" height="33" as="geometry" />
        </mxCell>
        <mxCell id="2FXpOR_JV8casT9oI08A-106" value="QuestionID" style="text;html=1;resizable=0;autosize=1;align=center;verticalAlign=middle;points=[];fillColor=none;strokeColor=none;startSize=26;fontSize=12;" parent="1" vertex="1">
          <mxGeometry x="485" y="1261.5" width="70" height="18" as="geometry" />
        </mxCell>
        <mxCell id="2FXpOR_JV8casT9oI08A-107" value="" style="html=1;dashed=0;whitespace=wrap;shape=partialRectangle;right=0;startSize=26;fillColor=#ffffff;gradientColor=none;" parent="1" vertex="1">
          <mxGeometry x="453" y="1270.5" width="30" height="33" as="geometry" />
        </mxCell>
        <mxCell id="2FXpOR_JV8casT9oI08A-108" value="Content" style="text;html=1;resizable=0;autosize=1;align=center;verticalAlign=middle;points=[];fillColor=none;strokeColor=none;startSize=26;fontSize=12;" parent="1" vertex="1">
          <mxGeometry x="485" y="1294.5" width="52" height="18" as="geometry" />
        </mxCell>
        <mxCell id="2FXpOR_JV8casT9oI08A-109" value="" style="html=1;dashed=0;whitespace=wrap;shape=partialRectangle;right=0;startSize=26;fillColor=#ffffff;gradientColor=none;" parent="1" vertex="1">
          <mxGeometry x="453" y="1303.5" width="30" height="33" as="geometry" />
        </mxCell>
        <mxCell id="2FXpOR_JV8casT9oI08A-110" value="Code" style="text;html=1;resizable=0;autosize=1;align=center;verticalAlign=middle;points=[];fillColor=none;strokeColor=none;startSize=26;fontSize=12;" parent="1" vertex="1">
          <mxGeometry x="484" y="1327.5" width="39" height="18" as="geometry" />
        </mxCell>
        <mxCell id="2FXpOR_JV8casT9oI08A-111" value="" style="html=1;dashed=0;whitespace=wrap;shape=partialRectangle;right=0;startSize=26;fillColor=#ffffff;gradientColor=none;" parent="1" vertex="1">
          <mxGeometry x="453" y="1336.5" width="30" height="33" as="geometry" />
        </mxCell>
        <mxCell id="2FXpOR_JV8casT9oI08A-112" value="" style="html=1;dashed=0;whitespace=wrap;shape=partialRectangle;right=0;startSize=26;fillColor=#ffffff;gradientColor=none;" parent="1" vertex="1">
          <mxGeometry x="453" y="1369.5" width="30" height="33" as="geometry" />
        </mxCell>
        <mxCell id="2FXpOR_JV8casT9oI08A-113" value="Programing_languague" style="text;html=1;resizable=0;autosize=1;align=center;verticalAlign=middle;points=[];fillColor=none;strokeColor=none;startSize=26;fontSize=12;" parent="1" vertex="1">
          <mxGeometry x="487" y="1359.5" width="135" height="18" as="geometry" />
        </mxCell>
        <mxCell id="2FXpOR_JV8casT9oI08A-115" value="AnswerA" style="text;html=1;resizable=0;autosize=1;align=center;verticalAlign=middle;points=[];fillColor=none;strokeColor=none;startSize=26;fontSize=12;" parent="1" vertex="1">
          <mxGeometry x="487" y="1394.5" width="58" height="18" as="geometry" />
        </mxCell>
        <mxCell id="2FXpOR_JV8casT9oI08A-116" value="" style="html=1;dashed=0;whitespace=wrap;shape=partialRectangle;right=0;startSize=26;fillColor=#ffffff;gradientColor=none;" parent="1" vertex="1">
          <mxGeometry x="453" y="1401.5" width="30" height="33" as="geometry" />
        </mxCell>
        <mxCell id="2FXpOR_JV8casT9oI08A-117" value="AnswerB" style="text;html=1;resizable=0;autosize=1;align=center;verticalAlign=middle;points=[];fillColor=none;strokeColor=none;startSize=26;fontSize=12;" parent="1" vertex="1">
          <mxGeometry x="488" y="1428.5" width="58" height="18" as="geometry" />
        </mxCell>
        <mxCell id="2FXpOR_JV8casT9oI08A-118" value="" style="html=1;dashed=0;whitespace=wrap;shape=partialRectangle;right=0;startSize=26;fillColor=#ffffff;gradientColor=none;" parent="1" vertex="1">
          <mxGeometry x="453" y="1434.5" width="30" height="33" as="geometry" />
        </mxCell>
        <mxCell id="2FXpOR_JV8casT9oI08A-119" value="AnswerC" style="text;html=1;resizable=0;autosize=1;align=center;verticalAlign=middle;points=[];fillColor=none;strokeColor=none;startSize=26;fontSize=12;" parent="1" vertex="1">
          <mxGeometry x="487" y="1459.5" width="59" height="18" as="geometry" />
        </mxCell>
        <mxCell id="2FXpOR_JV8casT9oI08A-120" value="" style="html=1;dashed=0;whitespace=wrap;shape=partialRectangle;right=0;startSize=26;fillColor=#ffffff;gradientColor=none;" parent="1" vertex="1">
          <mxGeometry x="453" y="1467.5" width="30" height="33" as="geometry" />
        </mxCell>
        <mxCell id="2FXpOR_JV8casT9oI08A-121" value="" style="html=1;dashed=0;whitespace=wrap;shape=partialRectangle;right=0;startSize=26;fillColor=#ffffff;gradientColor=none;" parent="1" vertex="1">
          <mxGeometry x="453" y="1500.5" width="30" height="33" as="geometry" />
        </mxCell>
        <mxCell id="2FXpOR_JV8casT9oI08A-122" value="AnswerD" style="text;html=1;resizable=0;autosize=1;align=center;verticalAlign=middle;points=[];fillColor=none;strokeColor=none;startSize=26;fontSize=12;" parent="1" vertex="1">
          <mxGeometry x="487" y="1490.5" width="59" height="18" as="geometry" />
        </mxCell>
        <mxCell id="2FXpOR_JV8casT9oI08A-123" value="CorrectAnswer" style="text;html=1;resizable=0;autosize=1;align=center;verticalAlign=middle;points=[];fillColor=none;strokeColor=none;startSize=26;fontSize=12;" parent="1" vertex="1">
          <mxGeometry x="488" y="1523.5" width="89" height="18" as="geometry" />
        </mxCell>
        <mxCell id="2FXpOR_JV8casT9oI08A-124" value="" style="html=1;dashed=0;whitespace=wrap;shape=partialRectangle;right=0;startSize=26;fillColor=#ffffff;gradientColor=none;" parent="1" vertex="1">
          <mxGeometry x="453" y="1533.5" width="30" height="33" as="geometry" />
        </mxCell>
        <mxCell id="2FXpOR_JV8casT9oI08A-126" value="Explanation" style="text;html=1;resizable=0;autosize=1;align=center;verticalAlign=middle;points=[];fillColor=none;strokeColor=none;startSize=26;fontSize=12;" parent="1" vertex="1">
          <mxGeometry x="488" y="1556.5" width="72" height="18" as="geometry" />
        </mxCell>
        <mxCell id="2FXpOR_JV8casT9oI08A-127" value="&lt;font style=&quot;font-size: 14px&quot; face=&quot;Times New Roman&quot;&gt;Has&lt;/font&gt;" style="shape=rhombus;perimeter=rhombusPerimeter;whiteSpace=wrap;html=1;align=center;startSize=26;fillColor=#ffffff;gradientColor=none;" parent="1" vertex="1">
          <mxGeometry x="255" y="880.5" width="82" height="41" as="geometry" />
        </mxCell>
        <mxCell id="2FXpOR_JV8casT9oI08A-128" value="Create" style="shape=rhombus;perimeter=rhombusPerimeter;whiteSpace=wrap;html=1;align=center;startSize=26;fillColor=#ffffff;gradientColor=none;" parent="1" vertex="1">
          <mxGeometry x="-46" y="1085" width="78" height="39" as="geometry" />
        </mxCell>
        <mxCell id="2FXpOR_JV8casT9oI08A-129" value="Create" style="shape=rhombus;perimeter=rhombusPerimeter;whiteSpace=wrap;html=1;align=center;startSize=26;fillColor=#ffffff;gradientColor=none;" parent="1" vertex="1">
          <mxGeometry x="250" y="986.5" width="92" height="46" as="geometry" />
        </mxCell>
        <mxCell id="2FXpOR_JV8casT9oI08A-130" value="Has" style="shape=rhombus;perimeter=rhombusPerimeter;whiteSpace=wrap;html=1;align=center;startSize=26;fillColor=#ffffff;gradientColor=none;" parent="1" vertex="1">
          <mxGeometry x="-74" y="1415" width="120" height="60" as="geometry" />
        </mxCell>
        <mxCell id="2FXpOR_JV8casT9oI08A-131" value="Create" style="shape=rhombus;perimeter=rhombusPerimeter;whiteSpace=wrap;html=1;align=center;startSize=26;fillColor=#ffffff;gradientColor=none;" parent="1" vertex="1">
          <mxGeometry x="233" y="1187.5" width="120" height="60" as="geometry" />
        </mxCell>
        <mxCell id="2FXpOR_JV8casT9oI08A-132" value="Has" style="shape=rhombus;perimeter=rhombusPerimeter;whiteSpace=wrap;html=1;align=center;startSize=26;fillColor=#ffffff;gradientColor=none;" parent="1" vertex="1">
          <mxGeometry x="615" y="1117" width="86" height="43" as="geometry" />
        </mxCell>
        <mxCell id="2FXpOR_JV8casT9oI08A-133" value="" style="endArrow=none;html=1;exitX=1;exitY=0.5;exitDx=0;exitDy=0;entryX=-0.001;entryY=0.612;entryDx=0;entryDy=0;edgeStyle=elbowEdgeStyle;entryPerimeter=0;" parent="1" source="2FXpOR_JV8casT9oI08A-129" target="2FXpOR_JV8casT9oI08A-95" edge="1">
          <mxGeometry width="50" height="50" relative="1" as="geometry">
            <mxPoint x="386" y="1204" as="sourcePoint" />
            <mxPoint x="436" y="1154" as="targetPoint" />
            <Array as="points">
              <mxPoint x="384" y="1014" />
              <mxPoint x="428" y="1020" />
              <mxPoint x="234" y="948" />
              <mxPoint x="234" y="980" />
              <mxPoint x="234" y="1075" />
            </Array>
          </mxGeometry>
        </mxCell>
        <mxCell id="2FXpOR_JV8casT9oI08A-134" value="" style="endArrow=none;html=1;exitX=0.5;exitY=0;exitDx=0;exitDy=0;entryX=0;entryY=0.75;entryDx=0;entryDy=0;edgeStyle=elbowEdgeStyle;" parent="1" source="2FXpOR_JV8casT9oI08A-141" target="2FXpOR_JV8casT9oI08A-95" edge="1">
          <mxGeometry width="50" height="50" relative="1" as="geometry">
            <mxPoint x="380" y="1198" as="sourcePoint" />
            <mxPoint x="430" y="1148" as="targetPoint" />
            <Array as="points">
              <mxPoint x="454" y="1133" />
              <mxPoint x="448" y="973" />
              <mxPoint x="367" y="943" />
              <mxPoint x="367" y="1133" />
            </Array>
          </mxGeometry>
        </mxCell>
        <mxCell id="2FXpOR_JV8casT9oI08A-135" value="" style="endArrow=none;html=1;entryX=0;entryY=0.5;entryDx=0;entryDy=0;edgeStyle=elbowEdgeStyle;exitX=1;exitY=0.25;exitDx=0;exitDy=0;" parent="1" source="2FXpOR_JV8casT9oI08A-69" target="2FXpOR_JV8casT9oI08A-141" edge="1">
          <mxGeometry width="50" height="50" relative="1" as="geometry">
            <mxPoint x="135" y="1084" as="sourcePoint" />
            <mxPoint x="206" y="1187" as="targetPoint" />
            <Array as="points">
              <mxPoint x="315" y="1129" />
            </Array>
          </mxGeometry>
        </mxCell>
        <mxCell id="2FXpOR_JV8casT9oI08A-136" value="" style="endArrow=none;html=1;entryX=1;entryY=0.5;entryDx=0;entryDy=0;exitX=-0.019;exitY=0.348;exitDx=0;exitDy=0;edgeStyle=elbowEdgeStyle;exitPerimeter=0;" parent="1" source="2FXpOR_JV8casT9oI08A-95" target="2FXpOR_JV8casT9oI08A-127" edge="1">
          <mxGeometry width="50" height="50" relative="1" as="geometry">
            <mxPoint x="277" y="1064" as="sourcePoint" />
            <mxPoint x="327" y="1014" as="targetPoint" />
            <Array as="points">
              <mxPoint x="453" y="904" />
              <mxPoint x="420" y="887" />
              <mxPoint x="477" y="945" />
            </Array>
          </mxGeometry>
        </mxCell>
        <mxCell id="2FXpOR_JV8casT9oI08A-137" value="" style="endArrow=none;html=1;entryX=0;entryY=0.5;entryDx=0;entryDy=0;edgeStyle=elbowEdgeStyle;exitX=1;exitY=0.5;exitDx=0;exitDy=0;" parent="1" source="2FXpOR_JV8casT9oI08A-56" target="2FXpOR_JV8casT9oI08A-127" edge="1">
          <mxGeometry width="50" height="50" relative="1" as="geometry">
            <mxPoint x="178" y="882" as="sourcePoint" />
            <mxPoint x="284" y="1062" as="targetPoint" />
            <Array as="points" />
          </mxGeometry>
        </mxCell>
        <mxCell id="2FXpOR_JV8casT9oI08A-138" value="" style="endArrow=none;html=1;exitX=0;exitY=0.5;exitDx=0;exitDy=0;edgeStyle=elbowEdgeStyle;entryX=0.5;entryY=0;entryDx=0;entryDy=0;" parent="1" source="2FXpOR_JV8casT9oI08A-129" target="2FXpOR_JV8casT9oI08A-69" edge="1">
          <mxGeometry width="50" height="50" relative="1" as="geometry">
            <mxPoint x="209" y="1171" as="sourcePoint" />
            <mxPoint x="77" y="1285" as="targetPoint" />
            <Array as="points">
              <mxPoint x="170" y="1149" />
              <mxPoint x="77" y="1367" />
            </Array>
          </mxGeometry>
        </mxCell>
        <mxCell id="2FXpOR_JV8casT9oI08A-139" value="" style="endArrow=none;html=1;exitX=0.5;exitY=1;exitDx=0;exitDy=0;entryX=0;entryY=0.25;entryDx=0;entryDy=0;edgeStyle=elbowEdgeStyle;" parent="1" source="2FXpOR_JV8casT9oI08A-128" target="2FXpOR_JV8casT9oI08A-69" edge="1">
          <mxGeometry width="50" height="50" relative="1" as="geometry">
            <mxPoint x="238" y="1114.5" as="sourcePoint" />
            <mxPoint x="288" y="1064.5" as="targetPoint" />
            <Array as="points">
              <mxPoint x="-7" y="1194" />
              <mxPoint x="79" y="1217.5" />
              <mxPoint x="74" y="1240.5" />
            </Array>
          </mxGeometry>
        </mxCell>
        <mxCell id="2FXpOR_JV8casT9oI08A-140" value="" style="endArrow=none;html=1;exitX=0.5;exitY=0;exitDx=0;exitDy=0;entryX=0;entryY=0.5;entryDx=0;entryDy=0;edgeStyle=elbowEdgeStyle;" parent="1" source="2FXpOR_JV8casT9oI08A-128" target="2FXpOR_JV8casT9oI08A-56" edge="1">
          <mxGeometry width="50" height="50" relative="1" as="geometry">
            <mxPoint x="76" y="1233" as="sourcePoint" />
            <mxPoint x="126" y="1183" as="targetPoint" />
            <Array as="points">
              <mxPoint x="-7" y="1123" />
              <mxPoint x="-12" y="1071" />
            </Array>
          </mxGeometry>
        </mxCell>
        <mxCell id="2FXpOR_JV8casT9oI08A-141" value="Resolve" style="shape=rhombus;perimeter=rhombusPerimeter;whiteSpace=wrap;html=1;align=center;startSize=26;fillColor=#ffffff;gradientColor=none;" parent="1" vertex="1">
          <mxGeometry x="386" y="1091" width="120" height="60" as="geometry" />
        </mxCell>
        <mxCell id="2FXpOR_JV8casT9oI08A-142" value="" style="endArrow=none;html=1;entryX=0;entryY=0.5;entryDx=0;entryDy=0;exitX=1;exitY=0.5;exitDx=0;exitDy=0;edgeStyle=elbowEdgeStyle;" parent="1" source="2FXpOR_JV8casT9oI08A-131" target="2FXpOR_JV8casT9oI08A-104" edge="1">
          <mxGeometry width="50" height="50" relative="1" as="geometry">
            <mxPoint x="353" y="1217.5" as="sourcePoint" />
            <mxPoint x="71" y="1135.5" as="targetPoint" />
            <Array as="points">
              <mxPoint x="375" y="1208" />
            </Array>
          </mxGeometry>
        </mxCell>
        <mxCell id="2FXpOR_JV8casT9oI08A-143" value="" style="endArrow=none;html=1;exitX=0.5;exitY=1;exitDx=0;exitDy=0;entryX=1;entryY=0.5;entryDx=0;entryDy=0;edgeStyle=elbowEdgeStyle;" parent="1" target="2FXpOR_JV8casT9oI08A-104" edge="1">
          <mxGeometry width="50" height="50" relative="1" as="geometry">
            <mxPoint x="649" y="1072" as="sourcePoint" />
            <mxPoint x="522" y="1119.5" as="targetPoint" />
            <Array as="points">
              <mxPoint x="649" y="1127" />
              <mxPoint x="633" y="1102" />
              <mxPoint x="586" y="1164" />
              <mxPoint x="794" y="973" />
              <mxPoint x="794" y="948" />
              <mxPoint x="799" y="955" />
            </Array>
          </mxGeometry>
        </mxCell>
        <mxCell id="2FXpOR_JV8casT9oI08A-144" value="" style="endArrow=none;html=1;exitX=1;exitY=0.5;exitDx=0;exitDy=0;entryX=0.5;entryY=0;entryDx=0;entryDy=0;edgeStyle=elbowEdgeStyle;" parent="1" source="2FXpOR_JV8casT9oI08A-95" target="2FXpOR_JV8casT9oI08A-132" edge="1">
          <mxGeometry width="50" height="50" relative="1" as="geometry">
            <mxPoint x="510" y="1188" as="sourcePoint" />
            <mxPoint x="560" y="1138" as="targetPoint" />
            <Array as="points">
              <mxPoint x="658" y="957" />
              <mxPoint x="641" y="957" />
              <mxPoint x="595" y="1045" />
              <mxPoint x="685" y="1010" />
              <mxPoint x="656" y="1011" />
            </Array>
          </mxGeometry>
        </mxCell>
        <mxCell id="2FXpOR_JV8casT9oI08A-145" value="" style="endArrow=none;html=1;exitX=1;exitY=0.5;exitDx=0;exitDy=0;entryX=0.5;entryY=0;entryDx=0;entryDy=0;edgeStyle=elbowEdgeStyle;" parent="1" source="2FXpOR_JV8casT9oI08A-69" target="2FXpOR_JV8casT9oI08A-131" edge="1">
          <mxGeometry width="50" height="50" relative="1" as="geometry">
            <mxPoint x="389" y="1226.5" as="sourcePoint" />
            <mxPoint x="439" y="1176.5" as="targetPoint" />
            <Array as="points">
              <mxPoint x="293" y="1156" />
              <mxPoint x="139" y="1209" />
              <mxPoint x="181" y="1211" />
            </Array>
          </mxGeometry>
        </mxCell>
        <mxCell id="2FXpOR_JV8casT9oI08A-147" value="" style="endArrow=none;html=1;entryX=0.5;entryY=0;entryDx=0;entryDy=0;edgeStyle=elbowEdgeStyle;exitX=0;exitY=0.5;exitDx=0;exitDy=0;" parent="1" source="2FXpOR_JV8casT9oI08A-69" target="2FXpOR_JV8casT9oI08A-130" edge="1">
          <mxGeometry width="50" height="50" relative="1" as="geometry">
            <mxPoint x="24" y="1218" as="sourcePoint" />
            <mxPoint x="330" y="1130" as="targetPoint" />
            <Array as="points">
              <mxPoint x="-16" y="1147" />
              <mxPoint x="-14" y="1383" />
              <mxPoint x="-58" y="1218" />
              <mxPoint x="-58" y="1300" />
              <mxPoint x="-118" y="1275" />
              <mxPoint x="-40" y="1568" />
              <mxPoint x="315" y="1118" />
            </Array>
          </mxGeometry>
        </mxCell>
        <mxCell id="2FXpOR_JV8casT9oI08A-149" value="" style="html=1;dashed=0;whitespace=wrap;shape=partialRectangle;right=0;startSize=26;fillColor=#ffffff;gradientColor=none;" parent="1" vertex="1">
          <mxGeometry x="110.5" y="1315" width="30" height="33" as="geometry" />
        </mxCell>
        <mxCell id="2FXpOR_JV8casT9oI08A-150" value="Point" style="text;html=1;resizable=0;autosize=1;align=center;verticalAlign=middle;points=[];fillColor=none;strokeColor=none;startSize=26;fontSize=12;" parent="1" vertex="1">
          <mxGeometry x="146.5" y="1338" width="37" height="18" as="geometry" />
        </mxCell>
        <mxCell id="2FXpOR_JV8casT9oI08A-151" value="" style="html=1;dashed=0;whitespace=wrap;shape=partialRectangle;right=0;startSize=26;fillColor=#ffffff;gradientColor=none;" parent="1" vertex="1">
          <mxGeometry x="110.5" y="1348" width="30" height="33" as="geometry" />
        </mxCell>
        <mxCell id="2FXpOR_JV8casT9oI08A-153" value="Streak" style="text;html=1;resizable=0;autosize=1;align=center;verticalAlign=middle;points=[];fillColor=none;strokeColor=none;startSize=26;fontSize=12;" parent="1" vertex="1">
          <mxGeometry x="145" y="1371" width="44" height="18" as="geometry" />
        </mxCell>
        <mxCell id="2FXpOR_JV8casT9oI08A-155" value="(1, 1)" style="edgeLabel;html=1;align=center;verticalAlign=middle;resizable=0;points=[];" parent="1" vertex="1" connectable="0">
          <mxGeometry x="98.50142857142856" y="844" as="geometry" />
        </mxCell>
        <mxCell id="2FXpOR_JV8casT9oI08A-157" value="(1, n)" style="edgeLabel;html=1;align=center;verticalAlign=middle;resizable=0;points=[];" parent="1" vertex="1" connectable="0">
          <mxGeometry x="586.0014285714285" y="880" as="geometry" />
        </mxCell>
        <mxCell id="2FXpOR_JV8casT9oI08A-158" value="(1, n)" style="edgeLabel;html=1;align=center;verticalAlign=middle;resizable=0;points=[];" parent="1" vertex="1" connectable="0">
          <mxGeometry x="6.001428571428562" y="883" as="geometry" />
        </mxCell>
        <mxCell id="2FXpOR_JV8casT9oI08A-159" value="(1, 1)" style="edgeLabel;html=1;align=center;verticalAlign=middle;resizable=0;points=[];" parent="1" vertex="1" connectable="0">
          <mxGeometry x="777.0014285714285" y="983" as="geometry" />
        </mxCell>
        <mxCell id="2FXpOR_JV8casT9oI08A-160" value="(1, n)" style="edgeLabel;html=1;align=center;verticalAlign=middle;resizable=0;points=[];" parent="1" vertex="1" connectable="0">
          <mxGeometry x="479.0014285714285" y="905" as="geometry" />
        </mxCell>
        <mxCell id="2FXpOR_JV8casT9oI08A-161" value="(1, n)" style="edgeLabel;html=1;align=center;verticalAlign=middle;resizable=0;points=[];" parent="1" vertex="1" connectable="0">
          <mxGeometry x="479.0014285714285" y="946" as="geometry" />
        </mxCell>
        <mxCell id="2FXpOR_JV8casT9oI08A-162" value="(1, n)" style="edgeLabel;html=1;align=center;verticalAlign=middle;resizable=0;points=[];" parent="1" vertex="1" connectable="0">
          <mxGeometry x="828.0014285714285" y="1133" as="geometry" />
        </mxCell>
        <mxCell id="2FXpOR_JV8casT9oI08A-163" value="(1, n)" style="edgeLabel;html=1;align=center;verticalAlign=middle;resizable=0;points=[];" parent="1" vertex="1" connectable="0">
          <mxGeometry x="441.0014285714285" y="1205.5" as="geometry">
            <mxPoint x="-6" y="2" as="offset" />
          </mxGeometry>
        </mxCell>
        <mxCell id="2FXpOR_JV8casT9oI08A-164" value="(1, 1)" style="edgeLabel;html=1;align=center;verticalAlign=middle;resizable=0;points=[];" parent="1" vertex="1" connectable="0">
          <mxGeometry x="86.0014285714285" y="1434" as="geometry" />
        </mxCell>
        <mxCell id="2FXpOR_JV8casT9oI08A-165" value="(1, 1)" style="edgeLabel;html=1;align=center;verticalAlign=middle;resizable=0;points=[];" parent="1" vertex="1" connectable="0">
          <mxGeometry x="229.0014285714285" y="1142" as="geometry" />
        </mxCell>
        <mxCell id="2FXpOR_JV8casT9oI08A-166" value="(1, 1)" style="edgeLabel;html=1;align=center;verticalAlign=middle;resizable=0;points=[];" parent="1" vertex="1" connectable="0">
          <mxGeometry x="229.0014285714285" y="1109" as="geometry" />
        </mxCell>
        <mxCell id="2FXpOR_JV8casT9oI08A-167" value="(1, n)" style="edgeLabel;html=1;align=center;verticalAlign=middle;resizable=0;points=[];" parent="1" vertex="1" connectable="0">
          <mxGeometry x="201.0014285714285" y="1092.5" as="geometry" />
        </mxCell>
        <mxCell id="2FXpOR_JV8casT9oI08A-168" value="(1, 1)" style="edgeLabel;html=1;align=center;verticalAlign=middle;resizable=0;points=[];" parent="1" vertex="1" connectable="0">
          <mxGeometry x="118.0014285714285" y="1095" as="geometry" />
        </mxCell>
        <mxCell id="2FXpOR_JV8casT9oI08A-169" value="(1, 1)" style="edgeLabel;html=1;align=center;verticalAlign=middle;resizable=0;points=[];" parent="1" vertex="1" connectable="0">
          <mxGeometry x="88.0014285714285" y="1147" as="geometry" />
        </mxCell>
        <mxCell id="2FXpOR_JV8casT9oI08A-170" value="" style="endArrow=none;html=1;exitX=1;exitY=0.5;exitDx=0;exitDy=0;entryX=0;entryY=0.5;entryDx=0;entryDy=0;" parent="1" source="2FXpOR_JV8casT9oI08A-130" target="2FXpOR_JV8casT9oI08A-84" edge="1">
          <mxGeometry width="50" height="50" relative="1" as="geometry">
            <mxPoint x="-9" y="1650.5" as="sourcePoint" />
            <mxPoint x="41" y="1600.5" as="targetPoint" />
            <Array as="points" />
          </mxGeometry>
        </mxCell>
        <mxCell id="2FXpOR_JV8casT9oI08A-56" value="&lt;font style=&quot;font-size: 18px&quot; face=&quot;Times New Roman&quot;&gt;&lt;b&gt;Topic&lt;/b&gt;&lt;/font&gt;" style="whiteSpace=wrap;html=1;align=center;startSize=26;fillColor=#dae8fc;strokeColor=#6c8ebf;" parent="1" vertex="1">
          <mxGeometry x="30" y="875" width="130" height="52" as="geometry" />
        </mxCell>
        <mxCell id="2FXpOR_JV8casT9oI08A-95" value="&lt;font style=&quot;font-size: 18px&quot; face=&quot;Times New Roman&quot;&gt;&lt;b&gt;Quiz&lt;/b&gt;&lt;/font&gt;" style="whiteSpace=wrap;html=1;align=center;startSize=26;fillColor=#dae8fc;strokeColor=#6c8ebf;" parent="1" vertex="1">
          <mxGeometry x="518" y="883" width="120.18" height="52" as="geometry" />
        </mxCell>
        <mxCell id="2FXpOR_JV8casT9oI08A-69" value="User" style="whiteSpace=wrap;html=1;align=center;startSize=26;fillColor=#dae8fc;strokeColor=#6c8ebf;" parent="1" vertex="1">
          <mxGeometry x="111" y="1111" width="100" height="40" as="geometry" />
        </mxCell>
      </root>
    </mxGraphModel>
  </diagram>
</mxfile>
